<svg xmlns="http://www.w3.org/2000/svg" fill="none" viewBox="0 0 40 40" height="40" width="40">
<path fill="white" d="M20 4C16.6875 4 14 6.6875 14 10V18C14 21.3125 16.6875 24 20 24C23.3125 24 26 21.3125 26 18V10C26 6.6875 23.3125 4 20 4ZM11 15.5C11 14.6687 10.3313 14 9.5 14C8.66875 14 8 14.6687 8 15.5V18C8 24.1188 12.5813 29.1687 18.5 29.9062V33H15.5C14.6687 33 14 33.6687 14 34.5C14 35.3313 14.6687 36 15.5 36H24.5C25.3313 36 26 35.3313 26 34.5C26 33.6687 25.3313 33 24.5 33H21.5V29.9062C27.4187 29.1687 32 24.1188 32 18V15.5C32 14.6687 31.3313 14 30.5 14C29.6687 14 29 14.6687 29 15.5V18C29 22.9688 24.9688 27 20 27C15.0312 27 11 22.9688 11 18V15.5Z"></path>
</svg>
