<svg width="200" height="200" viewBox="0 0 200 200" fill="none" xmlns="http://www.w3.org/2000/svg">
<path d="M137.448 137.5C152.057 137.5 164.719 129.187 170.943 117.043C170.927 117.056 158.325 126.992 137.448 126.992C120.883 126.992 109.529 120.737 105.536 118.147C104.427 117.427 103.133 117.045 101.81 117.045H78.0598C78.6614 118.219 79.3229 119.357 80.0416 120.453H32.2526L30.8021 123.862H106.125C107.544 123.862 108.906 124.446 109.87 125.485C111.664 127.418 113.661 129.161 115.828 130.681H89.9322C91.7942 131.988 93.7812 133.133 95.8697 134.089H26.4505L25 137.497H137.448V137.5Z" fill="#441E36"/>
<path d="M96.2345 103.41H74.1147C74.2188 104.563 74.3751 105.698 74.5808 106.818H38.0548L36.6043 110.226H98.7605C100.31 110.226 101.813 110.751 103.024 111.715C107.466 115.25 120.073 123.857 137.448 123.857C154.823 123.857 167.234 115.38 171.768 111.795C173.01 110.813 173.872 109.434 174.206 107.891C174.635 105.885 174.906 103.817 175 101.705H144.591L146.047 98.2894H175C174.906 96.1774 174.635 94.1122 174.206 92.1041C173.875 90.5584 173.01 89.1816 171.768 88.1997C167.234 84.6148 154.69 76.1383 137.448 76.1383C120.206 76.1383 107.503 84.7213 103.042 88.2672C101.818 89.2388 100.302 89.7713 98.7371 89.7713H45.3074L43.8569 93.1796H74.5808C74.3751 94.2992 74.2188 95.437 74.1147 96.5878H96.2345C97.2865 96.5878 98.3178 96.8814 99.2136 97.4373C100.107 97.9932 101.138 98.2868 102.193 98.2868H130.464L129.008 101.703H102.193C101.141 101.703 100.109 101.996 99.2136 102.552C98.3204 103.108 97.2891 103.402 96.2345 103.402V103.41ZM135.044 95.2526H122.776L125.805 88.1321H157.612L154.583 95.2526H144.052L135.969 114.232H126.961L135.044 95.2526Z" fill="#441E36"/>
<path d="M51.1118 76.1383L49.6612 79.5465H80.0414C79.3227 80.6454 78.6612 81.7832 78.0596 82.9548H101.81C103.133 82.9548 104.427 82.5729 105.536 81.8533C109.528 79.2634 120.883 73.008 137.448 73.008C158.325 73.008 170.927 82.9444 170.942 82.9574C164.721 70.8154 152.057 62.5 137.448 62.5H56.9138L55.4633 65.9083H95.8721C93.7836 66.8668 91.7966 68.0099 89.9346 69.3165H115.83C113.666 70.8362 111.669 72.5793 109.872 74.5121C108.906 75.5512 107.547 76.1357 106.127 76.1357H51.1118V76.1383Z" fill="#441E36"/>
</svg>
