<svg width="512" height="512" viewBox="0 0 512 512" fill="none" xmlns="http://www.w3.org/2000/svg">
<path d="M349.575 364.255C349.575 364.255 348.463 373.849 347.732 381.423C347.001 388.984 340.537 398.021 340.537 398.021C340.537 398.021 336.472 404.294 327.245 403.007C318.018 401.72 311.181 404.203 305.098 406.791C305.098 406.791 275.383 418.332 262.471 416.673C249.994 415.076 241.133 408.472 240.542 408.022C240.514 408.008 240.493 407.987 240.486 407.973C239.86 407.389 229.753 397.88 228.86 392.613C227.925 387.169 231.399 389.483 236.505 390.756C241.597 392.036 256.19 395.609 264.637 396.305C273.098 397.001 295.786 398.281 310.148 392.015C324.509 385.762 325.902 374.763 325.902 374.763C325.902 374.763 327.4 362.371 331.226 355.302C335.059 348.248 339.911 340.364 350.805 331.805C350.805 331.805 356.833 327.635 357.993 318.027C359.154 308.42 358.218 303.314 363.908 294.052C369.577 284.782 375.723 272.629 373.747 257.234C371.771 241.839 365.286 228.406 361.228 222.259C357.177 216.112 346.178 201.054 344.792 198.74C343.491 196.56 336.458 188.578 340.692 174.483C340.952 173.647 339.946 173.007 339.299 173.597C335.094 177.43 326.907 186.763 328.462 200.372C330.41 217.371 336.606 236.079 329.559 249.125C329.137 249.92 327.941 249.624 327.941 248.738C327.941 240.573 326.893 217.687 315.851 200.611C302.179 179.477 285.412 174.181 288.507 153.216C291.602 132.257 295.252 115.125 280.672 100.904C266.789 87.3654 229.76 82.5197 216.812 53.9586C216.411 53.0724 215.096 53.4171 215.181 54.3876C215.997 63.6009 220.533 84.5522 243.854 105.279C275.025 132.982 268.822 141.372 262.808 149.573C256.788 157.78 240.563 158.687 232.369 151.218C224.169 143.742 215.968 133.179 212.684 118.233C210.483 108.204 205.243 104.737 202.029 103.548C201.234 103.253 200.531 104.139 201.023 104.835C203.175 107.902 206.488 114.977 204.849 128.073C202.486 146.851 207.944 154.137 207.944 154.137C207.944 154.137 215.237 166.353 227.088 175.827C238.938 185.307 251.879 202.44 242.94 217.751C234.008 233.069 219.422 229.967 219.422 229.967C219.422 229.967 197.366 227.048 190.98 203.164C184.601 179.287 184.172 166.17 173.306 154.861C164.198 145.402 153.571 140.887 138.542 144.136C137.621 144.34 137.67 145.655 138.591 145.81C146.187 147.012 159.367 152.773 164.93 177.458C164.93 177.458 175.662 218.194 159.367 218.588C146.974 218.883 145.434 206.821 145.406 201.019C145.406 200.14 144.225 199.845 143.803 200.618C141.573 204.697 138.549 213.355 143.592 225.374C150.765 242.451 151.152 243.358 154.415 261.742C157.665 280.119 161.385 295.902 177.941 311.993C177.962 312.021 177.99 312.042 178.018 312.07C178.658 312.57 187.33 319.406 191.683 328.872C195.467 337.08 203.436 348.748 207.775 355.295C212.114 361.85 209.357 362.483 207.88 362.905C207.88 362.905 198.168 365.367 184.594 354.529C183.827 353.924 182.808 354.873 183.349 355.675C186.493 360.38 192.703 368.292 203.675 377.485C221.433 392.374 224.556 406.411 224.556 406.411C224.556 406.411 229.141 425.865 223.248 433.531C217.354 441.19 213.619 438.841 210.476 434.705C207.332 430.577 195.151 413.48 189.454 405.624C183.757 397.761 166.85 375.361 165.872 356.491C164.888 337.628 169.41 319.94 163.319 307.372C160.014 300.529 156.75 297.639 154.472 296.429C153.677 296.007 152.868 296.992 153.396 297.709C155.604 300.691 158.523 307.19 156.441 319.554C153.297 338.226 147.403 358.657 151.328 383.224C155.266 407.79 167.63 419.57 167.63 419.57C167.63 419.57 173.918 425.654 183.159 428.017C192.401 430.38 198.097 435.479 201.832 439.417C205.567 443.356 224.232 458.027 241.716 458.477C264.714 459.061 275.911 456.311 291.243 449.235C306.568 442.153 330.93 427.032 343.505 418.775C356.08 410.526 367.868 400.307 367.481 385.762C367.108 371.802 359.59 350.991 369.823 326.748C370.174 325.911 369.162 325.159 368.472 325.771C363.711 329.962 353.963 341.061 349.589 364.277M338.111 308.751C346.586 301.964 349.99 292.188 351.326 286.231C351.537 285.24 353 285.408 353.014 286.414C353.084 291.956 351.523 299.2 349.385 304.411C346.431 311.62 342.542 316.797 325.719 327.698C314.599 334.907 307.363 347.897 303.733 355.865C303.304 356.786 301.926 356.329 302.116 355.324C308.059 325.489 326.113 318.351 338.118 308.751M186.725 293.405C184.819 278.593 199.743 269.275 207.311 265.54C208.183 265.118 207.782 263.803 206.811 263.922C193.406 265.589 182.646 275.112 179.101 278.593C178.595 279.093 177.744 278.783 177.66 278.073C175.346 258.198 170.957 248.098 167.884 243.238C167.363 242.408 168.383 241.501 169.15 242.113C174.874 246.713 180.22 253.992 180.22 253.992C180.22 253.992 184.861 259.485 191.205 256.573C195.495 254.597 195.72 249.512 195.418 246.41C195.341 245.637 196.234 245.165 196.825 245.679C208.45 255.546 246.217 264.541 263.371 245.749C276.973 230.874 273.238 211.456 270.474 202.559C270.193 201.652 271.41 201.047 271.993 201.807C290.947 226.704 284.217 245.397 281.812 251.284C279.378 257.227 285.75 259.154 286.292 259.302C286.313 259.302 286.348 259.33 286.369 259.337C294.499 262.558 304.226 267.516 306.976 268.93C307.405 269.141 307.559 269.661 307.341 270.09L302.524 279.36C302.299 279.81 302.496 280.345 302.96 280.534C318.376 287.033 328.208 293.025 331.387 295.072C331.915 295.416 331.915 296.183 331.387 296.513C318.306 304.594 299.169 317.591 293.135 321.706C292.488 322.142 291.644 321.544 291.834 320.784C295.013 307.654 290.954 300.318 290.954 300.318C287.41 292.842 272.711 288.672 269.771 287.912C269.455 287.828 269.215 287.567 269.166 287.237C265.931 270.414 251.429 267.861 244.818 267.587C243.932 267.551 243.587 268.726 244.34 269.183C251.373 273.396 253.841 278.059 254.706 280.907C254.952 281.73 253.975 282.37 253.321 281.786C251.028 279.768 246.822 276.645 242.075 275.808C236.427 274.817 231.04 278.087 228.994 279.529C228.494 279.88 227.798 279.585 227.657 279.001C227.186 276.941 228.093 274.591 228.853 273.136C229.183 272.489 228.614 271.764 227.896 271.912C222.769 272.925 216.728 278.087 219.246 285.394C220.983 290.416 227.601 293.412 232.454 294.973C233.396 295.283 233.164 296.689 232.172 296.654C228.143 296.471 222.551 295.515 217.277 292.167C210.068 287.567 210.912 279.564 211.833 275.731C212.016 274.985 211.186 274.402 210.532 274.831C203.576 279.346 198.977 282.679 200.088 292.308C201.108 301.043 214.456 310.34 227.418 314.849C235.9 317.802 252.435 320.876 262.822 322.634C263.849 322.817 263.709 324.336 262.661 324.336C233.277 324.392 217.277 319.068 217.277 319.068C217.277 319.068 189.236 313.147 186.711 293.426M217.27 339.464C214.013 334.239 208.218 326.727 207.487 325.792C207.487 325.792 206.551 324.505 207.065 323.935C207.571 323.373 208.267 323.619 209.034 324.125C209.786 324.631 212.571 326.594 217.073 328.19H217.122C217.706 328.373 233.558 333.191 244.804 334.105C256.254 335.026 258.842 339.274 258.842 342.601C258.842 345.927 259.573 357.56 255.142 368.82C250.712 380.087 243.503 374.362 243.503 374.362C243.503 374.362 237.124 370.592 230.21 360.064C225.154 352.363 220.962 345.358 217.284 339.457" fill="#C8102E"/>
</svg>
