<?xml version="1.0" encoding="UTF-8"?><svg id="Layer_2" xmlns="http://www.w3.org/2000/svg" viewBox="0 0 135 40"><defs><style>.cls-1{fill:#fbbc04;}.cls-2{fill:#ea4335;}.cls-3,.cls-4{fill:#fff;}.cls-5{fill:#a6a6a6;}.cls-6{fill:#4285f4;}.cls-7{fill:#34a853;}.cls-4{stroke:#fff;stroke-miterlimit:10;stroke-width:.2px;}</style></defs><g id="artwork"><g id="Background"><rect width="135" height="40" rx="5" ry="5"/></g><path id="Border" class="cls-5" d="M130,.8c2.32,0,4.2,1.88,4.2,4.2v30c0,2.32-1.88,4.2-4.2,4.2H5c-2.32,0-4.2-1.88-4.2-4.2V5C.8,2.68,2.68,.8,5,.8h125M130,0H5C2.25,0,0,2.25,0,5v30c0,2.75,2.25,5,5,5h125c2.75,0,5-2.25,5-5V5C135,2.25,132.75,0,130,0h0Z"/><path id="Google_Play" class="cls-3" d="M68.14,21.75c-2.35,0-4.27,1.79-4.27,4.25s1.92,4.25,4.27,4.25,4.27-1.8,4.27-4.25-1.92-4.25-4.27-4.25Zm0,6.83c-1.29,0-2.4-1.06-2.4-2.58s1.11-2.58,2.4-2.58,2.4,1.05,2.4,2.58-1.11,2.58-2.4,2.58Zm-9.31-6.83c-2.35,0-4.27,1.79-4.27,4.25s1.92,4.25,4.27,4.25,4.27-1.8,4.27-4.25-1.92-4.25-4.27-4.25Zm0,6.83c-1.29,0-2.4-1.06-2.4-2.58s1.11-2.58,2.4-2.58,2.4,1.05,2.4,2.58-1.11,2.58-2.4,2.58Zm-11.08-5.53v1.8h4.32c-.13,1.01-.47,1.76-.98,2.27-.63,.63-1.61,1.32-3.33,1.32-2.66,0-4.74-2.14-4.74-4.8s2.08-4.8,4.74-4.8c1.43,0,2.48,.56,3.25,1.29l1.27-1.27c-1.08-1.03-2.51-1.82-4.53-1.82-3.64,0-6.7,2.96-6.7,6.61s3.06,6.61,6.7,6.61c1.97,0,3.45-.64,4.61-1.85,1.19-1.19,1.56-2.87,1.56-4.22,0-.42-.03-.81-.1-1.13h-6.07Zm45.31,1.4c-.35-.95-1.43-2.71-3.64-2.71s-4.01,1.72-4.01,4.25c0,2.38,1.8,4.25,4.22,4.25,1.95,0,3.08-1.19,3.54-1.88l-1.45-.97c-.48,.71-1.14,1.18-2.09,1.18s-1.63-.43-2.06-1.29l5.69-2.35-.19-.48Zm-5.8,1.42c-.05-1.64,1.27-2.48,2.22-2.48,.74,0,1.37,.37,1.58,.9l-3.8,1.58Zm-4.62,4.12h1.87v-12.5h-1.87v12.5Zm-3.06-7.3h-.06c-.42-.5-1.22-.95-2.24-.95-2.13,0-4.08,1.87-4.08,4.27s1.95,4.24,4.08,4.24c1.01,0,1.82-.45,2.24-.97h.06v.61c0,1.63-.87,2.5-2.27,2.5-1.14,0-1.85-.82-2.14-1.51l-1.63,.68c.47,1.13,1.71,2.51,3.77,2.51,2.19,0,4.04-1.29,4.04-4.43v-7.64h-1.77v.69Zm-2.14,5.88c-1.29,0-2.37-1.08-2.37-2.56s1.08-2.59,2.37-2.59,2.27,1.1,2.27,2.59-1,2.56-2.27,2.56Zm24.38-11.08h-4.47v12.5h1.87v-4.74h2.61c2.07,0,4.1-1.5,4.1-3.88s-2.03-3.88-4.1-3.88Zm.05,6.03h-2.65v-4.29h2.65c1.4,0,2.19,1.16,2.19,2.14s-.79,2.14-2.19,2.14Zm11.53-1.8c-1.35,0-2.75,.6-3.33,1.91l1.66,.69c.35-.69,1.01-.92,1.7-.92,.96,0,1.95,.58,1.96,1.61v.13c-.34-.19-1.06-.48-1.95-.48-1.79,0-3.6,.98-3.6,2.81,0,1.67,1.46,2.75,3.1,2.75,1.25,0,1.95-.56,2.38-1.22h.06v.96h1.8v-4.79c0-2.22-1.66-3.46-3.8-3.46Zm-.23,6.85c-.61,0-1.46-.31-1.46-1.06,0-.96,1.06-1.33,1.98-1.33,.82,0,1.21,.18,1.7,.42-.14,1.16-1.14,1.98-2.22,1.98Zm10.58-6.58l-2.14,5.42h-.06l-2.22-5.42h-2.01l3.33,7.58-1.9,4.21h1.95l5.13-11.79h-2.07Zm-16.81,8h1.87v-12.5h-1.87v12.5Z"/><g id="Get_it_on"><path class="cls-4" d="M44.47,9.79v.72h2.18c-.04,.52-.21,.92-.5,1.22-.45,.45-1.01,.67-1.68,.67-.63,0-1.18-.22-1.64-.67s-.69-1.02-.69-1.73,.23-1.29,.69-1.73,1.01-.67,1.64-.67c.7,0,1.25,.24,1.64,.71l.53-.53c-.23-.28-.55-.5-.94-.67-.39-.17-.8-.25-1.23-.25-.87,0-1.6,.3-2.21,.9-.61,.6-.91,1.34-.91,2.23s.3,1.63,.91,2.23c.61,.6,1.34,.9,2.21,.9s1.64-.3,2.2-.89c.5-.5,.75-1.17,.75-2,0-.15-.01-.3-.04-.45h-2.91Z"/><polygon class="cls-4" points="48.52 13 52.03 13 52.03 12.26 49.3 12.26 49.3 10.36 51.76 10.36 51.76 9.64 49.3 9.64 49.3 7.74 52.03 7.74 52.03 7 48.52 7 48.52 13"/><polygon class="cls-4" points="52.83 7.74 54.51 7.74 54.51 13 55.28 13 55.28 7.74 56.96 7.74 56.96 7 52.83 7 52.83 7.74"/><rect class="cls-4" x="59.94" y="7" width=".77" height="6"/><polygon class="cls-4" points="61.68 7.74 63.36 7.74 63.36 13 64.13 13 64.13 7.74 65.8 7.74 65.8 7 61.68 7 61.68 7.74"/><path class="cls-4" d="M71.41,6.87c-.88,0-1.61,.3-2.2,.91-.59,.61-.88,1.35-.88,2.22s.29,1.62,.88,2.22c.59,.61,1.32,.91,2.2,.91s1.61-.3,2.2-.91c.59-.61,.88-1.35,.88-2.22s-.3-1.61-.89-2.22c-.59-.61-1.32-.91-2.2-.91Zm1.63,4.86c-.44,.45-.99,.67-1.63,.67s-1.19-.22-1.63-.67c-.44-.45-.67-1.02-.67-1.72s.22-1.27,.67-1.72c.44-.45,.99-.67,1.63-.67s1.19,.22,1.63,.67c.44,.45,.67,1.02,.67,1.72s-.22,1.27-.67,1.72Z"/><polygon class="cls-4" points="79.43 7 79.43 10.51 79.46 11.67 79.43 11.67 76.51 7 75.57 7 75.57 13 76.34 13 76.34 9.26 76.31 8.11 76.34 8.11 79.4 13 80.2 13 80.2 7 79.43 7"/></g><g id="Symbol"><path class="cls-2" d="M20.72,19.42l-10.65,11.3s0,0,0,0c.33,1.23,1.45,2.13,2.78,2.13,.53,0,1.03-.14,1.46-.4l.03-.02,11.98-6.91-5.61-6.11Z"/><path class="cls-1" d="M31.49,17.5h-.01s-5.17-3.01-5.17-3.01l-5.83,5.19,5.85,5.85,5.15-2.97c.9-.49,1.51-1.44,1.51-2.53s-.6-2.04-1.5-2.52Z"/><path class="cls-6" d="M10.07,9.28c-.06,.24-.1,.48-.1,.74V29.98c0,.26,.03,.5,.1,.74l11.01-11.01L10.07,9.28Z"/><path class="cls-7" d="M20.8,20l5.51-5.51L14.34,7.55c-.43-.26-.94-.41-1.49-.41-1.33,0-2.45,.91-2.78,2.13,0,0,0,0,0,0l10.73,10.72Z"/></g></g></svg>