<svg xmlns="http://www.w3.org/2000/svg" viewBox="0 0 30.666668 56.066666" height="56.066666" width="30.666668" id="svg2" version="1.1">
  <defs id="defs6"></defs>
  
  <g transform="matrix(1.3333333,0,0,-1.3333333,0,56.066667)" id="g8">
    <g transform="scale(0.1)" id="g10">
      <path id="path12" style="fill:#ffffff;fill-opacity:1;fill-rule:nonzero;stroke:none" d="m 12.9805,325.883 h 59.9883 l 14.2187,65.535 89.0425,29.074 -20.41,-94.609 h 74.211 l -12.992,-60.61 H 142.832 L 112.539,126.145 c -1.855,-7.418 -3.711,-18.555 -3.711,-30.9106 0,-19.1758 12.988,-30.918 31.543,-30.918 14.844,0 29.68,3.0859 40.195,7.4219 L 166.34,7.42578 C 152.109,4.33984 136.035,0.00390625 121.816,0.00390625 65.5469,0.00390625 25.9688,22.2578 25.9688,83.4883 c 0,24.7147 4.9492,48.8357 10.5156,74.1797 L 59.9805,265.273 H 0 l 12.9805,60.61"></path>
    </g>
  </g>
</svg>
