<?xml version="1.0" encoding="UTF-8" standalone="no"?>
<svg xmlns:rdf="http://www.w3.org/1999/02/22-rdf-syntax-ns#" xmlns="http://www.w3.org/2000/svg" height="253.66724" width="180.76001" version="1.1" xmlns:cc="http://creativecommons.org/ns#" xmlns:dc="http://purl.org/dc/elements/1.1/" viewBox="0 0 180.76001 253.66724"><path d="M151.63871,108.4248h-6.29228C105.25265,63.44282,93.70814,9.98443,93.70814,9.98443S82.05962,64.11885,41.34183,109.30884H27.56121l-.364.988c-5.72026,13.62461-23.505,43.994-23.505,43.994h44.462c.572.676,1.3,1.40407,1.3,1.40407,31.56539,35.88159,44.254,88.976,44.254,88.976s12.74057-53.09436,44.358-88.92395c.52-.676,1.196-1.45607,1.196-1.45607h11.38851c24.38909,0,25.32512-12.06453,25.32512-16.22471a14.0489,14.0489,0,0,0-4.88822-10.45246l6.86431-13.4686-1.61206-.98805C176.02779,113.001,168.33145,108.4248,151.63871,108.4248Z" fill="#00040b"/><path d="M171.08758,127.61365a14.1346,14.1346,0,0,1,4.88821,10.45246c0,4.05619-.936,16.22472-25.32512,16.22472h-11.3365s-.728.78-1.24806,1.45607c-31.5654,35.82959-44.358,88.92393-44.358,88.92393s-12.68856-53.09434-44.306-88.92393c0,0-.676-.78-1.248-1.45607H3.69216s17.78479-30.31734,23.505-43.99395l.416-.988H41.34183c40.7178-45.19,52.36632-99.32438,52.36632-99.32438s11.4925,53.45836,51.63829,98.49234c3.38014-.052,5.61624-.052,6.29227-.052,16.69274,0,24.38908,4.5762,24.7011,4.78421l1.66407.988ZM180.76,113.365a39.60735,39.60735,0,0,0-10.08846-4.6802,68.10054,68.10054,0,0,0-19.03284-2.3401h-5.35624A216.83924,216.83924,0,0,1,122.2054,73.06323a253.14605,253.14605,0,0,1-15.75669-31.40939A212.92716,212.92716,0,0,1,95.73624,9.51643L93.70815,0,91.62806,9.51643c0,.156-2.96413,13.67661-10.81649,32.50144a258.53114,258.53114,0,0,1-15.9647,31.72141,220.87087,220.87087,0,0,1-24.44108,33.48947H26.20915l-.988,2.23609c-5.56425,13.36461-23.193,43.47393-23.349,43.734L0,156.37093H47.21809l.624.78A167.44017,167.44017,0,0,1,67.863,185.80423,245.0979,245.0979,0,0,1,81.4876,214.4575a238.73044,238.73044,0,0,1,10.19246,30.73336l2.02809,8.47638,2.08009-8.47638a235.80917,235.80917,0,0,1,10.24446-30.83737,240.06459,240.06459,0,0,1,13.6246-28.60126A166.44793,166.44793,0,0,1,139.62618,157.099l.624-.728h10.40046c11.02449,0,18.87684-2.44412,23.349-7.22832a16.32333,16.32333,0,0,0-.364-21.945Z" fill="#bd955b"/><path d="M93.70815,60.94668a224.05145,224.05145,0,0,0,22.257,37.54567h12.01253S105.40867,72.3352,93.70815,33.9055C82.00763,72.3352,59.43863,98.49235,59.43863,98.49235H71.45116A205.502,205.502,0,0,0,93.70815,60.94668Z" fill="#fff"/><path d="M87.36386,86.0638c3.38015,1.30006,5.56425,4.16019,6.34428,10.45248.78-6.29229,2.96413-9.15242,6.29227-10.45248-3.32814-1.3-5.51224-4.10817-6.29227-10.40046C92.92811,81.95563,90.744,84.81577,87.36386,86.0638Z" fill="#c22032"/><polygon points="53.718 109.309 53.718 103.537 55.174 103.537 55.174 108.061 60.323 108.061 60.323 109.309 53.718 109.309" fill="#bd955b"/><path d="M66.51095,104.62864l-1.35206,2.2881H67.811Zm2.70412,4.6802-.676-1.144H64.43085l-.624,1.144H62.24676l3.32814-5.77225H67.447l3.32814,5.77225Z" fill="#bd955b"/><path d="M79.61553,107.43675a1.72288,1.72288,0,0,1-.208.78005,2.22056,2.22056,0,0,1-.728.676,4.76979,4.76979,0,0,1-1.19606.468,9.57454,9.57454,0,0,1-1.71607.156,7.04813,7.04813,0,0,1-1.04006-.104,6.68913,6.68913,0,0,1-.988-.208,4.49316,4.49316,0,0,1-1.092-.364l.52-1.14406a6.58546,6.58546,0,0,0,.936.312,3.89449,3.89449,0,0,0,.832.208,4.47359,4.47359,0,0,0,.832.052,4.62411,4.62411,0,0,0,1.87207-.208c.364-.156.572-.312.572-.572.052-.156-.052-.26-.156-.364a2.61,2.61,0,0,0-.624-.104h-.312l-.624-.052-.78-.052h-.93605a4.46384,4.46384,0,0,1-.884-.156,1.82307,1.82307,0,0,1-.728-.312,1.22769,1.22769,0,0,1-.416-.468,1.19393,1.19393,0,0,1-.208-.728,1.24244,1.24244,0,0,1,.26-.728,2.30208,2.30208,0,0,1,.78-.624,8.08521,8.08521,0,0,1,1.196-.416,7.833,7.833,0,0,1,3.53616.156,4.4928,4.4928,0,0,1,1.09205.364l-.416,1.144a2.932,2.932,0,0,0-.624-.208,2.57438,2.57438,0,0,0-.676-.208c-.208-.052-.468-.052-.676-.104-.26,0-.468-.052-.728-.052-.312,0-.624.052-.884.052l-.78.156a1.8474,1.8474,0,0,0-.468.208.47747.47747,0,0,0-.208.312.42756.42756,0,0,0,.208.312.93765.93765,0,0,0,.52.104l1.14406.052,1.71607.104a5.79087,5.79087,0,0,1,.884.104,1.97083,1.97083,0,0,1,.676.312,2.036,2.036,0,0,1,.416.52A1.319,1.319,0,0,1,79.61553,107.43675Z" fill="#bd955b"/><polygon points="91.94 109.309 90.068 109.309 87.052 103.537 88.664 103.537 91.004 108.113 93.344 103.537 94.956 103.537 91.94 109.309" fill="#bd955b"/><polygon points="97.088 109.309 97.088 103.537 104.057 103.537 104.057 104.785 98.544 104.785 98.544 105.825 103.381 105.825 103.381 106.917 98.544 106.917 98.544 108.061 104.265 108.061 104.265 109.309 97.088 109.309" fill="#bd955b"/><path d="M114.50907,106.4487a3.30319,3.30319,0,0,1-.26,1.19606,2.84985,2.84985,0,0,1-.832.936,2.93261,2.93261,0,0,1-1.24805.676,5.52931,5.52931,0,0,1-3.43215,0,3.27015,3.27015,0,0,1-1.24806-.676,2.6891,2.6891,0,0,1-.78-.936,2.75572,2.75572,0,0,1,0-2.39211,2.45124,2.45124,0,0,1,.78-.988,4.17613,4.17613,0,0,1,1.24806-.676,6.857,6.857,0,0,1,2.91213-.156,7.5837,7.5837,0,0,1,.98805.364,3.10405,3.10405,0,0,1,.78.468,6.23068,6.23068,0,0,1,.572.624l-1.3.676a1.7864,1.7864,0,0,0-.83205-.676,3.09608,3.09608,0,0,0-1.40406-.312,3.95884,3.95884,0,0,0-1.092.156,2.26317,2.26317,0,0,0-.78.416,1.62572,1.62572,0,0,0-.468.572,1.36035,1.36035,0,0,0,0,1.40407,1.62569,1.62569,0,0,0,.468.572,2.263,2.263,0,0,0,.78.416,3.95884,3.95884,0,0,0,1.092.156,3.79952,3.79952,0,0,0,1.56008-.312,1.84036,1.84036,0,0,0,.832-.832h-2.96413v-1.09206h4.5762a.39308.39308,0,0,0,.052.208Z" fill="#bd955b"/><path d="M120.59333,104.62864l-1.30006,2.2881h2.65212Zm2.70413,4.6802-.676-1.144h-4.05618l-.676,1.144h-1.56008l3.32815-5.77225h1.87208l3.32815,5.77225Z" fill="#bd955b"/><path d="M133.69792,107.43675a1.25339,1.25339,0,0,1-.208.78005,1.81163,1.81163,0,0,1-.728.676,4.76964,4.76964,0,0,1-1.19606.468,9.15706,9.15706,0,0,1-1.71607.156,6.37159,6.37159,0,0,1-.988-.104,7.36518,7.36518,0,0,1-1.04006-.208,3.5302,3.5302,0,0,1-1.04-.364l.468-1.14406a6.58516,6.58516,0,0,0,.936.312,4.86671,4.86671,0,0,0,.832.208,4.47343,4.47343,0,0,0,.832.052,4.62409,4.62409,0,0,0,1.87207-.208c.416-.156.624-.312.624-.572a.52634.52634,0,0,0-.208-.364,1.86925,1.86925,0,0,0-.572-.104h-.364l-.624-.052-.78-.052h-.936a5.254,5.254,0,0,1-.884-.156,1.6115,1.6115,0,0,1-.676-.312,1.02037,1.02037,0,0,1-.468-.468,1.66093,1.66093,0,0,1-.156-.728.97319.97319,0,0,1,.26-.728,2.11689,2.11689,0,0,1,.728-.624,8.08494,8.08494,0,0,1,1.19606-.416,8.378,8.378,0,0,1,2.5481-.052,9.17894,9.17894,0,0,1,1.04005.208,3.53008,3.53008,0,0,1,1.04005.364l-.416,1.144a1.86308,1.86308,0,0,0-.572-.208,3.36324,3.36324,0,0,0-.676-.208c-.26-.052-.468-.052-.728-.104-.208,0-.468-.052-.67605-.052-.312,0-.624.052-.936.052-.26.052-.52.104-.728.156a1.55727,1.55727,0,0,0-.52.208.31442.31442,0,0,0-.156.312.37061.37061,0,0,0,.156.312,1.02859,1.02859,0,0,0,.572.104l1.09206.052,1.71607.104a4.57985,4.57985,0,0,1,.884.104,1.6116,1.6116,0,0,1,.676.312,1.3204,1.3204,0,0,1,.416.52A.895.895,0,0,1,133.69792,107.43675Z" fill="#bd955b"/><path d="M98.75237,183.1001c-1.56008,2.96414-3.43216,6.34429-5.04423,9.82844a221.91751,221.91751,0,0,0-22.257-37.54567c-.832-1.144-.78-1.092-.78-1.092H58.34657s19.39686,21.737,35.36157,66.04292c0,0,5.25223-13.98862,10.86847-26.05315Z" fill="#c22032"/><path d="M107.43675,188.35235a206.65163,206.65163,0,0,0-21.789-34.06149H97.86832c3.27615,4.47218,6.39629,8.68437,9.56843,13.7286,3.17214-5.04423,5.92826-9.25642,9.20441-13.7286h12.53255S118.30523,166.97942,107.43675,188.35235Z" fill="#c22032"/><path d="M32.18942,135.414c1.50806-2.96413,3.01614-6.08427,4.26419-8.9964,1.30005,2.91213,2.80813,6.03227,4.26418,8.9964ZM47.06208,146.9065h9.41241a199.73516,199.73516,0,0,1-15.54868-30.21333h-8.9444A204.33626,204.33626,0,0,1,16.48472,146.9065h9.36042c.936-1.50806,1.92409-3.22413,2.96413-5.09622H44.14995C45.19,143.73437,46.178,145.39844,47.06208,146.9065Z" fill="#fff"/><path d="M150.96268,147.58254a50.17374,50.17374,0,0,1-15.9127-2.13209l3.43214-7.80034c2.96413,2.3921,7.48834,3.58816,12.48056,3.58816,5.04422,0,8.00835-1.09205,8.00835-2.96413,0-1.82009-2.91213-2.54812-8.21636-3.84818l-1.87209-.416c-8.42437-2.0801-12.48054-4.00419-12.48054-9.36042,0-7.59233,9.77643-8.73639,15.54869-8.73639,6.65629,0,10.97247.624,15.70469,2.3401l-3.64016,7.12432c-3.01614-2.3401-6.6043-3.32814-12.06453-3.32814-3.90017,0-6.24029.832-6.24029,2.2881,0,1.66407,2.86013,2.3921,9.15242,3.90017l1.97608.468c7.33232,1.82009,11.59651,4.05619,11.59651,9.25642C168.43545,146.07448,158.971,147.58254,150.96268,147.58254Z" fill="#fff"/><path d="M76.8074,147.58254c-11.02449,0-19.39686-6.70829-19.39686-15.70469s8.32036-15.75669,19.39686-15.75669a31.45365,31.45365,0,0,1,14.66465,3.17213l-3.69217,7.54034a14.67794,14.67794,0,0,0-10.66048-4.05618c-7.1243,0-10.81647,4.5762-10.81647,9.1004s3.69217,9.1524,10.81647,9.1524a14.71361,14.71361,0,0,0,10.66048-4.10817l3.69217,7.54033A31.45339,31.45339,0,0,1,76.8074,147.58254Z" fill="#fff"/><path d="M98.64837,146.9065a18.57447,18.57447,0,0,0,.884-6.13626V122.82943a18.57447,18.57447,0,0,0-.884-6.13626h32.34542l-2.2881,7.43632a14.18791,14.18791,0,0,0-6.18827-1.56006H107.74877v6.03226H124.3895V134.478H107.74877v6.13627h14.76865a14.2148,14.2148,0,0,0,5.98026-1.456v7.74833Z" fill="#fff"/></svg>