<svg xmlns="http://www.w3.org/2000/svg" fill="none" viewBox="0 0 26 26" height="26" width="26">
<path fill="white" d="M7.4686 0.789793C8.79357 0.728471 9.21602 0.714844 12.5911 0.714844C15.9663 0.714844 16.3887 0.729606 17.7125 0.789793C19.0364 0.84998 19.94 1.06234 20.7307 1.37008C21.5587 1.68464 22.3098 2.17636 22.9311 2.81229C23.5637 3.43573 24.0516 4.18977 24.3634 5.0233C24.6706 5.81822 24.8807 6.72669 24.9417 8.05534C25.0027 9.38967 25.0163 9.81438 25.0163 13.2064C25.0163 16.5996 25.0016 17.0243 24.9417 18.3563C24.8818 19.685 24.6706 20.5935 24.3634 21.3884C24.0516 22.222 23.5628 22.9773 22.9311 23.6017C22.3098 24.2376 21.5587 24.7282 20.7307 25.0416C19.94 25.3505 19.0364 25.5617 17.7148 25.623C16.3887 25.6843 15.9663 25.698 12.5911 25.698C9.21602 25.698 8.79357 25.6832 7.4686 25.623C6.14702 25.5628 5.24337 25.3505 4.45268 25.0416C3.6235 24.7281 2.87223 24.2367 2.25118 23.6017C1.61905 22.9778 1.12988 22.2229 0.81777 21.3895C0.51166 20.5946 0.301562 19.6861 0.240566 18.3575C0.17957 17.0231 0.166016 16.5984 0.166016 13.2064C0.166016 9.81324 0.1807 9.38853 0.240566 8.05761C0.300433 6.72669 0.51166 5.81822 0.81777 5.0233C1.13034 4.18986 1.61989 3.43495 2.25231 2.81116C2.87248 2.17579 3.62299 1.68401 4.45155 1.37008C5.24224 1.06234 6.14589 0.851115 7.46747 0.789793H7.4686ZM17.612 3.03827C16.3017 2.97809 15.9086 2.9656 12.5911 2.9656C9.27363 2.9656 8.88054 2.97809 7.57026 3.03827C6.35824 3.09392 5.70084 3.29719 5.26258 3.46867C4.68311 3.69578 4.26857 3.96492 3.83369 4.40213C3.42145 4.80532 3.1042 5.29616 2.90519 5.83866C2.73463 6.27927 2.53244 6.94018 2.47709 8.15868C2.41722 9.47597 2.4048 9.87116 2.4048 13.2064C2.4048 16.5417 2.41722 16.9368 2.47709 18.2541C2.53244 19.4726 2.73463 20.1335 2.90519 20.5742C3.10399 21.1158 3.4214 21.6076 3.83369 22.0107C4.23468 22.4252 4.72378 22.7443 5.26258 22.9441C5.70084 23.1156 6.35824 23.3189 7.57026 23.3745C8.88054 23.4347 9.2725 23.4472 12.5911 23.4472C15.9098 23.4472 16.3017 23.4347 17.612 23.3745C18.824 23.3189 19.4814 23.1156 19.9197 22.9441C20.4992 22.717 20.9137 22.4479 21.3486 22.0107C21.7609 21.6076 22.0783 21.1158 22.2771 20.5742C22.4477 20.1335 22.6498 19.4726 22.7052 18.2541C22.7651 16.9368 22.7775 16.5417 22.7775 13.2064C22.7775 9.87116 22.7651 9.47597 22.7052 8.15868C22.6498 6.94018 22.4477 6.27927 22.2771 5.83866C22.0512 5.25609 21.7835 4.83933 21.3486 4.40213C20.9475 3.98771 20.4593 3.66877 19.9197 3.46867C19.4814 3.29719 18.824 3.09392 17.612 3.03827ZM11.0041 17.0572C11.8904 17.4281 12.8773 17.4782 13.7963 17.1988C14.7152 16.9195 15.5092 16.3281 16.0426 15.5256C16.576 14.7231 16.8157 13.7593 16.7208 12.7988C16.626 11.8384 16.2023 10.9409 15.5223 10.2595C15.0889 9.82401 14.5647 9.49052 13.9876 9.28309C13.4106 9.07565 12.7949 8.99943 12.1851 9.05991C11.5752 9.12038 10.9862 9.31605 10.4606 9.63283C9.93494 9.94961 9.4857 10.3796 9.1452 10.8919C8.80471 11.4042 8.58143 11.986 8.49143 12.5954C8.40144 13.2049 8.44697 13.8268 8.62475 14.4164C8.80252 15.006 9.10813 15.5487 9.51956 16.0053C9.93099 16.462 10.438 16.8212 11.0041 17.0572ZM8.07517 8.66629C8.66822 8.07007 9.37226 7.59713 10.1471 7.27446C10.922 6.95179 11.7524 6.78571 12.5911 6.78571C13.4298 6.78571 14.2603 6.95179 15.0352 7.27446C15.81 7.59713 16.5141 8.07007 17.1071 8.66629C17.7002 9.26251 18.1706 9.97032 18.4915 10.7493C18.8125 11.5283 18.9777 12.3632 18.9777 13.2064C18.9777 14.0496 18.8125 14.8845 18.4915 15.6635C18.1706 16.4425 17.7002 17.1503 17.1071 17.7465C15.9094 18.9506 14.285 19.6271 12.5911 19.6271C10.8973 19.6271 9.27288 18.9506 8.07517 17.7465C6.87746 16.5424 6.2046 14.9093 6.2046 13.2064C6.2046 11.5035 6.87746 9.8704 8.07517 8.66629ZM20.3941 7.74192C20.5411 7.60254 20.6587 7.43494 20.7401 7.24904C20.8215 7.06313 20.8649 6.8627 20.8679 6.65961C20.8708 6.45652 20.8332 6.25491 20.7572 6.06669C20.6813 5.87848 20.5686 5.70751 20.4257 5.56389C20.2828 5.42027 20.1128 5.30692 19.9256 5.23056C19.7384 5.15421 19.5378 5.11639 19.3358 5.11935C19.1338 5.12231 18.9344 5.16599 18.7495 5.2478C18.5646 5.32961 18.3979 5.44789 18.2593 5.59564C17.9896 5.88298 17.842 6.26464 17.8478 6.65961C17.8535 7.05458 18.0121 7.43176 18.2899 7.71108C18.5678 7.99039 18.9429 8.14985 19.3358 8.15561C19.7287 8.16137 20.1083 8.01297 20.3941 7.74192Z" clip-rule="evenodd" fill-rule="evenodd"></path>
</svg>
