<svg height="220.389266" viewBox="0 0 104.55141 51.301363" width="453.742606" xmlns="http://www.w3.org/2000/svg"><g transform="translate(.500008 .5)"><path d="m84.177394.39699985h-.002l-.631-.397-.293.682h-.002l-1.515 3.52900005c-3.747-.4-7.985-.663-12.345-.771-.364-.009-.727-.017-1.094-.024-.037-.001-.075-.001-.113-.002-.739-.013-1.482-.022-2.229-.026-.022 0-.043 0-.067 0-.759-.005-1.519-.004-2.276.002h-.025c-.769.007-1.537.015-2.3.033h-.008c-.439.01-.876.02-1.313.033l-.443.012c-.8.026-1.596.057-2.384.095-16.581.785-30.73 3.908-40.81 8.4000001-5.041 2.249-9.0680001 4.839-11.8740001 7.682-2.805 2.84-4.40000002 5.968-4.45200002 9.233-.002.127-.002.252.001.377.037 1.853.488 3.58 1.28800002 5.158 1.404 2.767 3.858 5.074 7.027 7.003 4.7570001 2.893 11.1490001 4.955 18.2620001 6.375 7.114 1.42 14.947 2.191 22.57 2.461h.004c.151.004.303.008.455.01h.001c13.352.332 20.37-1.545 20.424-1.561.314-.084.514-.393.459-.717-.053-.322-.341-.557-.668-.54-.001 0-.341.017-.976.037-1.904.065-6.415.179-11.978.041-2.644-.065-5.526-.188-8.479-.397-12.388-.884-21.225-2.938-27.291-5.496h-8.357s1-1.297 2.466-3.198c-1.71-1.21-2.985-2.46-3.873-3.695-1.264-1.761-1.7760001-3.481-1.7510001-5.067.017-1.129.382-2.238 1.0910001-3.342 1.238-1.93 3.552-3.813 6.727-5.496 4.76-2.53 11.429-4.623 19.182-6.015 6.945-1.25 14.762-1.94 22.873-1.909l.566.004c.758.007 1.516.018 2.275.037 5.291.13 10.382.557 15.162 1.224l-.651 1.517-1.58 3.672 1.338-.419h.002l24.564996-8.17m-19.132996-4.4060001c-3.781-.42-8.153-.7-12.65-.811-1.457-.036-2.926-.053-4.382-.053-2.644 0-5.257.059-7.72.174-8.479.401-16.108 1.408-22.807 2.809-7.373 1.5420001-13.722 3.1790001-20.879 6.6460001-4.5360001 2.197-7.6260001 4.599-9.5070001 6.339.473-.602.991-1.194 1.501-1.651 8.3540001-8 27.3570001-14.2210001 51.6260001-15.3640001 2.524-.119 5.136-.176 7.748-.176 5.993 0 12 .303 17.05.858l.744 1.31zm2.826-3.089-.548-1.772 14.183 8.6600001-2.83-.3720001z" fill="#f16631"/><path d="m64.850394 30.809c-.507-.478-1.39-1.153-3.589-1.372-.242-.023-.51-.036-.792-.036-.7 0-2.905.091-4.683 1.149 0 0-.575.257-1.495.867-.337.225-.601.43-.814.607-.023.01-.05.021-.073.032.267-.472.676-1.003 1.3-1.515 1.684-1.373 3.525-1.778 5.649-1.785.396 0 .801.016 1.212.041 1.174.094 2.475.547 3.083.959.224.148.411.324.576.516-.063-.355-.128-.712-.19-1.066-.006-.004-.009-.006-.013-.009-.755-.502-2.108-.958-3.411-1.069-2.693-.17-5.162.119-7.33 1.893-1.961 1.604-2.057 3.457-2.057 3.457s1.728-1.186 3.982-1.684c2.514-.557 4.056.183 4.463 1.051.834 1.753-3.041 4.754-7.424 4.65-3.989-.094-5.372-2.02-4.984-3.877.68-3.264 4.802-4.923 4.802-4.923s-1.968-.793-1.178-2.518c.413-.734 1.546-1.851 3.756-1.97 3.919-.208 5.36 1.549 5.36 1.549s.808-2.404-1.242-4.344c-1.655-1.38-3.738-1.662-5.454-1.611-2.539.144-5.86 1.063-7.864 3.802-1.105 1.518-1.144 3.674-.645 5.147 0 0-2.447 1.188-3.831 3.301.066.34.133.682.198 1.022.016-.032.03-.065.046-.098.071-.14.149-.276.23-.408.04-.063.075-.131.117-.194.111-.166.231-.326.355-.481.089-.111.183-.218.278-.325.038-.041.076-.084.114-.126.237-.251.484-.485.733-.698.528-.451 1.048-.804 1.435-1.037.385-.238.617-.349.617-.35l.536-.259-.191-.563c-.17-.496-.273-1.104-.272-1.736-.001-.991.255-2.021.824-2.799 1.818-2.501 4.933-3.39 7.357-3.526.098-.002.214-.005.333-.005 1.553 0 3.29.32 4.655 1.462.918.878 1.135 1.844 1.154 2.584-.015-.009-.035-.019-.052-.028-.083-.129-.175-.268-.272-.403-.3-.416-.539-.658-.539-.658-.162-.376-.402-.721-.726-1.033-1.043-.854-2.464-1.288-4.222-1.288-.103 0-.207.001-.31.005-1.422.083-4.888.571-6.857 3.265-.846 1.161-.834 2.865-.465 3.958.21.623-.074 1.305-.664 1.588-.034.017-3.272 1.666-3.917 4.196-.02.077-.035.147-.05.22.407 2.094.791 4.054 1.058 5.414 1.533 1.135 3.804 2.063 6.133 2.334 3.716.41 7.881-.162 10.845-1.434 2.527-1.079 4.733-2.893 5.753-5.006-.222-1.208-.479-2.624-.744-4.1-.151-.247-.337-.48-.604-.735m-3.313 4.271c-.625.991-1.762 1.916-3.197 2.602-1.059.506-2.761 1.109-4.863 1.109-.085 0-.169-.002-.256-.004-2.603-.062-4.109-.83-4.973-1.617.556.246 1.247.41 2.032.498.813.307 1.799.488 2.95.5.081.002.158.002.238.002 2.085-.002 4.016-.637 5.466-1.518.955-.599 1.73-1.283 2.161-2.063.418-.367.756-.744.983-1.123-.024.532-.201 1.077-.541 1.614" fill="#f16631"/><g fill="#523022"><path d="m97.419394 20.533c-2.188 0-3.336 1.065-3.748 1.821-.42.753-4.565 8.571-4.565 8.571s-.735-7.686-.851-8.601c-.156-1.161-1.267-1.792-2.482-1.792h-3.598c-1.301 0-2.557.382-3.381 1.834-.461.811-4.826 8.559-4.826 8.559s-1.178-7.577-1.358-8.381c-.181-.803-1.073-2.011-3.178-2.011h-5.947s.752 4.234 1.55 8.674c.063.354.127.711.19 1.065.077.427.153.853.229 1.272.266 1.475.523 2.891.744 4.099.287 1.571.516 2.792.624 3.315.48 2.33 2.312 2.67 3.868 2.67h2.059c1.906 0 2.963-1.056 3.492-1.871.541-.819 4.725-7.543 4.725-7.543s.904 5.227 1.259 6.947c.353 1.725 1.985 2.467 3.549 2.467h3.015c1.488 0 3.17-1.217 3.866-2.408.692-1.19 10.895996-18.688 10.895996-18.688m-38.200996 1.562-1.056-.883h5.139c1.219.01 1.867.446 2.207.883zm16.825 0c-1.03 0-1.596.292-2.022 1.045-.455.799-4.78 8.475-4.823 8.553-.281.497-.806.795-1.361.795-.092 0-.186-.009-.279-.026-.637-.115-1.134-.615-1.252-1.248h.919c.092.193.271.338.491.379.285.053.568-.082.714-.336.004-.006 4.364-7.746 4.825-8.554.705-1.207 1.603-1.466 2.789-1.491h3.599c.851.016 1.481.352 1.714.883zm18.658996 0h-3.415996c-1.774 0-2.318.903-2.375 1.006-.002.005-.004.009-.006.014-.408.73-4.512 8.466-4.552 8.543-.274.519-.81.83-1.379.83-.103 0-.205-.009-.306-.032-.629-.123-1.108-.623-1.225-1.242h.918c.09.189.264.334.479.377.295.06.592-.082.732-.348.004-.009 4.151-7.828 4.561-8.557.304-.545 1.197-1.468 3.152-1.474h4.950996s-.002 0-.002.002z"/><path d="m43.468394 39.748c-.268-1.359-.651-3.32-1.059-5.414-.081-.416-.163-.836-.246-1.26-.066-.34-.132-.682-.199-1.023-.728-3.754-1.424-7.386-1.571-8.302-.234-1.449-.569-3.215-.569-3.215h-6.067c-3.078 0-5.393.947-6.922 2.87-.846 1.063-7.815 10.09-11.625 15.027-1.467 1.901-2.467 3.198-2.467 3.198h9.327l2.169-2.715 8.424-.008.407 2.723h10.767s-.143-.726-.369-1.881m-16.526-5 4.293-6.039.866 6.012zm11.584-12.654h-4.766c-2.613 0-4.479.748-5.7 2.282-.83 1.042-7.722 9.967-11.544 14.922-.206.269-.405.525-.592.769l-1.793.88h-.004c.423-.549.987-1.281 1.643-2.131 1.167-1.512 2.628-3.404 4.119-5.334 3.373-4.371 6.902-8.933 7.478-9.657 1.387-1.732 3.443-2.605 6.393-2.615h5.501z"/></g></g></svg>